<?xml version="1.0" standalone="no"?><svg xmlns="http://www.w3.org/2000/svg" viewBox="0 0 1440 320"><path fill="gray" fill-opacity="0.5" d="M0,0L40,26.7C80,53,160,107,240,133.3C320,160,400,160,480,144C560,128,640,96,720,106.7C800,117,880,171,960,181.3C1040,192,1120,160,1200,144C1280,128,1360,128,1400,128L1440,128L1440,320L1400,320C1360,320,1280,320,1200,320C1120,320,1040,320,960,320C880,320,800,320,720,320C640,320,560,320,480,320C400,320,320,320,240,320C160,320,80,320,40,320L0,320Z"></path></svg>